<?xml version="1.0" standalone="no"?>
<!DOCTYPE svg PUBLIC "-//W3C//DTD SVG 20010904//EN"
 "http://www.w3.org/TR/2001/REC-SVG-20010904/DTD/svg10.dtd">
<svg version="1.0" xmlns="http://www.w3.org/2000/svg"
 width="700.000000pt" height="515.000000pt" viewBox="0 0 700.000000 515.000000"
 preserveAspectRatio="xMidYMid meet">

<g transform="translate(0.000000,515.000000) scale(0.100000,-0.100000)"
fill="#ffffff" stroke="none">
<path d="M2100 5141 c0 -6 22 -54 49 -108 96 -191 161 -398 196 -623 23 -143
31 -488 15 -648 -23 -244 -86 -552 -149 -735 l-20 -58 27 -10 c15 -6 55 -21
90 -34 150 -57 323 -161 457 -275 188 -160 360 -414 456 -672 36 -98 89 -301
89 -343 0 -55 16 -11 28 77 69 500 444 965 930 1153 95 36 278 85 322 85 52 0
52 10 6 116 -79 181 -132 362 -162 564 -24 156 -24 454 0 607 47 305 150 589
300 826 33 53 50 87 42 87 -29 0 -153 -43 -196 -67 -167 -96 -321 -281 -450
-542 -32 -64 -61 -126 -64 -138 -7 -23 -8 -22 -84 16 -97 49 -215 86 -316 100
-222 31 -488 -7 -715 -103 -44 -19 -83 -31 -85 -28 -2 4 -20 47 -40 95 -111
270 -264 483 -418 580 -31 20 -90 48 -131 62 -75 25 -177 34 -177 16z"/>
<path d="M1005 2549 c-386 -53 -655 -253 -859 -639 -52 -99 -116 -252 -130
-313 l-7 -27 38 16 c131 57 253 100 353 127 145 38 336 44 435 13 169 -51 323
-180 455 -381 77 -118 236 -433 398 -790 55 -121 136 -295 181 -388 l80 -167
1248 0 c749 0 1243 4 1238 9 -6 5 -57 35 -115 66 -463 251 -825 590 -1475
1380 -377 458 -608 690 -846 851 -167 112 -345 190 -524 230 -85 19 -371 27
-470 13z"/>
<path d="M6940 143 c-30 -20 -95 -61 -145 -90 l-90 -53 148 0 147 0 0 90 c0
50 -1 90 -3 90 -1 0 -27 -17 -57 -37z" />
</g>
</svg>
