<svg width="75" height="93" viewBox="0 0 75 93" fill="none" xmlns="http://www.w3.org/2000/svg">
<line x1="1.5" y1="-1.5" x2="33.4644" y2="-1.5" transform="matrix(0.433378 -0.901212 0.964087 0.265588 3 81.4678)" stroke="black" stroke-width="3" stroke-linecap="round"/>
<line x1="1.5" y1="-1.5" x2="33.4644" y2="-1.5" transform="matrix(0.433378 -0.901212 0.964087 0.265588 3 81.4678)" stroke="black" stroke-opacity="0.2" stroke-width="3" stroke-linecap="round"/>
<line x1="1.5" y1="-1.5" x2="27.8941" y2="-1.5" transform="matrix(0.433378 -0.901212 0.964087 0.265588 9.20245 81.1424)" stroke="black" stroke-width="3" stroke-linecap="round"/>
<line x1="1.5" y1="-1.5" x2="27.8941" y2="-1.5" transform="matrix(0.433378 -0.901212 0.964087 0.265588 9.20245 81.1424)" stroke="black" stroke-opacity="0.2" stroke-width="3" stroke-linecap="round"/>
<line x1="1.5" y1="-1.5" x2="27.9147" y2="-1.5" transform="matrix(-0.440857 0.897577 -0.962621 -0.270853 38.1196 1)" stroke="black" stroke-width="3" stroke-linecap="round"/>
<line x1="1.5" y1="-1.5" x2="27.9147" y2="-1.5" transform="matrix(-0.440857 0.897577 -0.962621 -0.270853 38.1196 1)" stroke="black" stroke-opacity="0.2" stroke-width="3" stroke-linecap="round"/>
<path d="M17.1772 49.9575H61.481" stroke="black" stroke-width="3" stroke-linecap="round"/>
<path d="M17.1772 49.9575H61.481" stroke="black" stroke-opacity="0.2" stroke-width="3" stroke-linecap="round"/>
<path d="M20.7216 54.6521H60.595" stroke="black" stroke-width="3" stroke-linecap="round"/>
<path d="M20.7216 54.6521H60.595" stroke="black" stroke-opacity="0.2" stroke-width="3" stroke-linecap="round"/>
<path d="M8.31635 80.8075L72.9999 80.8075" stroke="black" stroke-width="3" stroke-linecap="round"/>
<path d="M8.31635 80.8075L72.9999 80.8075" stroke="black" stroke-opacity="0.2" stroke-width="3" stroke-linecap="round"/>
<path d="M61.481 49.9575L39.3291 2.34129" stroke="black" stroke-width="3" stroke-linecap="round"/>
<path d="M61.481 49.9575L39.3291 2.34129" stroke="black" stroke-opacity="0.2" stroke-width="3" stroke-linecap="round"/>
<path d="M58.3784 91L46.862 67.9324" stroke="black" stroke-width="3" stroke-linecap="round"/>
<path d="M58.3784 91L46.862 67.9324" stroke="black" stroke-opacity="0.2" stroke-width="3" stroke-linecap="round"/>
<path d="M33.5886 40.5072L26.9241 27.1554" stroke="black" stroke-width="3" stroke-linecap="round"/>
<path d="M33.5886 40.5072L26.9241 27.1554" stroke="black" stroke-opacity="0.2" stroke-width="3" stroke-linecap="round"/>
<path d="M73 80.8075L60.5949 54.6521" stroke="black" stroke-width="3" stroke-linecap="round"/>
<path d="M73 80.8075L60.5949 54.6521" stroke="black" stroke-opacity="0.2" stroke-width="3" stroke-linecap="round"/>
</svg>
