<svg xmlns="http://www.w3.org/2000/svg" width="15" height="10.5" viewBox="0 0 15 10.5">
  <g id="Wifi_weak" transform="translate(-402 -1020.25)">
    <path id="Path_49394" data-name="Path 49394" d="M14.881-6.87a10.9,10.9,0,0,0-14.761,0,.373.373,0,0,0-.008.539l.8.8a.381.381,0,0,0,.525.009,8.992,8.992,0,0,1,12.123,0,.381.381,0,0,0,.525-.009l.8-.8A.373.373,0,0,0,14.881-6.87ZM7.5-2.25A1.5,1.5,0,0,0,6-.75,1.5,1.5,0,0,0,7.5.75,1.5,1.5,0,0,0,9-.75,1.5,1.5,0,0,0,7.5-2.25Zm4.75-1.959a7.2,7.2,0,0,0-9.5,0,.37.37,0,0,0-.013.543l.807.8a.383.383,0,0,0,.517.019,5.279,5.279,0,0,1,6.879,0,.382.382,0,0,0,.517-.019l.807-.8A.37.37,0,0,0,12.25-4.209Z" transform="translate(402 1030)" fill="#dfe3e8"/>
    <path id="Path_49395" data-name="Path 49395" d="M9-.75a1.5,1.5,0,0,0-1.5-1.5A1.5,1.5,0,0,0,6-.75,1.5,1.5,0,0,0,7.5.75,1.5,1.5,0,0,0,9-.75Z" transform="translate(402 1030)" fill="#de350b"/>
  </g>
</svg>
